<svg width="24" height="24" viewBox="0 0 24 24" fill="none" xmlns="http://www.w3.org/2000/svg">
<g id="Frame">
<g id="Group">
<path id="Vector" d="M23.1538 6.13092C22.33 6.49231 21.4522 6.73185 20.5369 6.84815C21.4785 6.286 22.1971 5.40262 22.5349 4.33785C21.6571 4.86123 20.6878 5.23092 19.6549 5.43723C18.8214 4.54969 17.6334 4 16.3374 4C13.8229 4 11.7986 6.04092 11.7986 8.54292C11.7986 8.90292 11.8291 9.24908 11.9038 9.57862C8.128 9.39446 4.78692 7.58477 2.54246 4.828C2.15062 5.50785 1.92077 6.286 1.92077 7.12369C1.92077 8.69662 2.73077 10.0909 3.93815 10.8982C3.20846 10.8843 2.49262 10.6725 1.88615 10.3388V10.3886C1.88615 12.5957 3.46046 14.4289 5.52492 14.8512C5.15523 14.9523 4.75231 15.0008 4.33415 15.0008C4.04338 15.0008 3.74985 14.9842 3.47431 14.9232C4.06277 16.7218 5.73262 18.0442 7.71815 18.0871C6.17292 19.2958 4.21092 20.0242 2.08692 20.0242C1.71446 20.0242 1.35723 20.0075 1 19.9618C3.01185 21.2592 5.39615 22 7.96738 22C16.3249 22 20.8942 15.0769 20.8942 9.076C20.8942 8.87523 20.8872 8.68139 20.8775 8.48892C21.7789 7.84923 22.5363 7.05031 23.1538 6.13092Z" fill="white"/>
</g>
</g>
</svg>
