<svg width="24" height="24" viewBox="0 0 24 24" fill="none" xmlns="http://www.w3.org/2000/svg">
<g id="Frame" clip-path="url(#clip0_140_83)">
<g id="Group">
<path id="Vector" d="M21.2797 11.8773C21.621 11.4361 21.8919 11.0821 22.092 10.815C23.5331 8.899 24.1578 7.67505 23.9663 7.14144L23.8912 7.01646C23.8413 6.9414 23.7119 6.87246 23.5038 6.81007C23.2955 6.74772 23.029 6.73775 22.7042 6.77891L19.1055 6.8043C19.0223 6.79601 18.9383 6.79795 18.8555 6.81007C18.7722 6.82274 18.7182 6.83545 18.693 6.84758C18.6679 6.86029 18.6472 6.87048 18.6306 6.87878L18.5807 6.91629C18.5391 6.94113 18.4933 6.98499 18.4434 7.04766C18.3934 7.11028 18.3514 7.18287 18.3184 7.26646C17.9268 8.27436 17.4812 9.21166 16.9813 10.078C16.673 10.5946 16.3897 11.0427 16.1318 11.4212C15.8735 11.8006 15.6569 12.0796 15.4819 12.2583C15.307 12.4374 15.1486 12.5814 15.0071 12.6893C14.8653 12.798 14.7571 12.8436 14.6824 12.827C14.6113 12.8115 14.5404 12.7948 14.4699 12.7768C14.3532 12.702 14.2594 12.6002 14.1888 12.4708C14.1179 12.342 14.0702 12.1794 14.045 11.9835C14.0202 11.7879 14.0053 11.6191 14.0014 11.4772C13.997 11.3357 13.9992 11.1359 14.0078 10.8774C14.0161 10.6191 14.0202 10.4445 14.0202 10.3526C14.0202 10.0364 14.0265 9.69262 14.039 9.3218C14.0514 8.95125 14.0619 8.65739 14.0702 8.44076C14.0785 8.22445 14.0826 7.99515 14.0826 7.75346C14.0826 7.5123 14.0679 7.32245 14.0386 7.18481C14.0092 7.04729 13.9652 6.91327 13.9076 6.785C13.8491 6.65615 13.7638 6.55597 13.6512 6.48537C13.5387 6.41445 13.3993 6.35846 13.2327 6.31649C12.7909 6.21631 12.2286 6.16279 11.5458 6.154C9.99621 6.138 9.0007 6.23786 8.55924 6.45417C8.38431 6.54605 8.22593 6.67076 8.08441 6.82914C7.93433 7.01263 7.91363 7.11276 8.02206 7.12877C8.522 7.20383 8.87578 7.38318 9.08407 7.66626L9.15913 7.81608C9.21733 7.92477 9.27558 8.11629 9.33406 8.39108C9.39231 8.66592 9.42982 8.96996 9.44663 9.30327C9.48829 9.91137 9.48829 10.4318 9.44663 10.8653C9.40497 11.2987 9.36553 11.6359 9.32802 11.877C9.29046 12.1187 9.2342 12.3144 9.1594 12.4642C9.08434 12.6145 9.03443 12.7061 9.00932 12.7395C8.9842 12.7726 8.96351 12.7936 8.94696 12.8019C8.83928 12.8433 8.7249 12.8644 8.60955 12.8642C8.49283 12.8642 8.35127 12.8057 8.18464 12.689C8.01796 12.5729 7.84497 12.4123 7.66617 12.2081C7.48682 12.0042 7.28511 11.7187 7.05996 11.3519C6.83508 10.9858 6.60164 10.5523 6.36021 10.0527L6.16044 9.69009C6.03547 9.45723 5.86465 9.11757 5.64806 8.67196C5.43148 8.22634 5.23969 7.79538 5.07333 7.37849C5.00656 7.20383 4.90665 7.07056 4.77343 6.97868L4.71108 6.94117C4.66942 6.90804 4.60265 6.87246 4.51104 6.83518C4.41852 6.79747 4.32209 6.77018 4.22354 6.7538L0.799704 6.77864C0.44985 6.77864 0.212572 6.85813 0.0875986 7.01646L0.0376453 7.09126C0.0123982 7.13319 0 7.19996 0 7.2913C0 7.38318 0.0251119 7.49548 0.0750652 7.62848C0.575004 8.80333 1.11858 9.93625 1.70572 11.0272C2.29316 12.1187 2.80334 12.9978 3.23651 13.6641C3.66968 14.331 4.11114 14.9595 4.56117 15.5511C5.0112 16.1426 5.30889 16.5214 5.45456 16.6878C5.60023 16.8548 5.71474 16.9798 5.7981 17.0628L6.11045 17.363C6.31021 17.5628 6.60407 17.8022 6.99148 18.0815C7.37884 18.3607 7.80764 18.6355 8.27864 18.9059C8.74909 19.1769 9.29704 19.3973 9.92169 19.5684C10.5464 19.7395 11.1545 19.8081 11.746 19.7745H13.183C13.4747 19.7496 13.6953 19.6583 13.8452 19.4997L13.8951 19.4373C13.9282 19.3876 13.9597 19.3104 13.9889 19.2063C14.0179 19.1023 14.0329 18.9875 14.0329 18.8628C14.0243 18.5047 14.0516 18.1813 14.114 17.8944C14.1763 17.6069 14.2472 17.3906 14.3265 17.2444C14.4056 17.0989 14.495 16.9759 14.5951 16.8757C14.6951 16.7755 14.7657 16.7157 14.8076 16.6947C14.8493 16.6743 14.8827 16.6597 14.9075 16.6508C15.1073 16.5843 15.3426 16.6489 15.6136 16.8445C15.8843 17.0407 16.1384 17.2818 16.3759 17.5693C16.6132 17.8568 16.8985 18.1794 17.2318 18.5378C17.5649 18.8959 17.8565 19.1624 18.1065 19.3374L18.3564 19.4878C18.523 19.5873 18.7394 19.679 19.0062 19.7626C19.2727 19.8456 19.5062 19.8666 19.7059 19.8249L22.9049 19.7747C23.2213 19.7747 23.4672 19.7229 23.6422 19.6185C23.817 19.5151 23.9211 19.3997 23.9545 19.275C23.9876 19.1501 23.9898 19.0091 23.9609 18.8504C23.9317 18.6923 23.9024 18.5819 23.8734 18.5196C23.8442 18.4572 23.8171 18.4048 23.792 18.3634C23.3754 17.6137 22.5799 16.693 21.4053 15.6018L21.3802 15.5769L21.3678 15.5643L21.3554 15.5521H21.3429C20.8095 15.0438 20.4723 14.7022 20.3308 14.527C20.0726 14.1943 20.0141 13.8569 20.1559 13.5153C20.2552 13.2563 20.6299 12.7106 21.2797 11.8773Z" fill="white"/>
</g>
</g>
<defs>
<clipPath id="clip0_140_83">
<rect width="24" height="24" fill="white"/>
</clipPath>
</defs>
</svg>
