<svg width="23" height="17" viewBox="0 0 23 17" fill="none" xmlns="http://www.w3.org/2000/svg">
<g id="Frame" clip-path="url(#clip0_140_133)">
<g id="Group">
<path id="Vector" d="M22.0579 3.25262C21.7984 2.28776 21.0377 1.52719 20.0729 1.26737C18.3105 0.785156 11.2607 0.785156 11.2607 0.785156C11.2607 0.785156 4.21119 0.785156 2.44877 1.24911C1.5026 1.50864 0.723343 2.28794 0.463812 3.25262C0 5.01489 0 8.66968 0 8.66968C0 8.66968 0 12.3428 0.463812 14.0867C0.723589 15.0514 1.48406 15.812 2.44891 16.0718C4.22974 16.5541 11.261 16.5541 11.261 16.5541C11.261 16.5541 18.3105 16.5541 20.0729 16.0902C21.0378 15.8305 21.7984 15.0699 22.0582 14.1052C22.5219 12.3428 22.5219 8.68819 22.5219 8.68819C22.5219 8.68819 22.5404 5.01486 22.0579 3.25262ZM9.01619 12.046V5.29321L14.8785 8.66961L9.01619 12.046Z" fill="white"/>
</g>
</g>
<defs>
<clipPath id="clip0_140_133">
<rect width="23" height="17" fill="white"/>
</clipPath>
</defs>
</svg>
